# xmcd CD database file
#
# Track frame offsets:
#	180
#	19487
#	43032
#	62360
#	84812
#	110245
#	127867
#	145572
#	173312
#	196135
#	217515
#	230810
#	252655
#	279275
#	304600
#
# Disc length: 4339 seconds
#
# Revision: 2
# Processed by: cddbd v1.4PL0 Copyright (c) Steve Scherf et al.
# Submitted via: CDex 1.51
#
DISCID=be10f10f
DTITLE=Collection d'Arnell-Andrea - Coll Age cd2
DYEAR=1998
DGENRE=Gothic Rock
TTITLE0=Les Chants de Peine
TTITLE1=Une Attente Fragile
TTITLE2=Kedves
TTITLE3=Kergal
TTITLE4=Collection (Anton's mind's getting blind)
TTITLE5=Une Attente Douleur (Mahan's version)
TTITLE6=Une Attente Douleur
TTITLE7=Aux Cordes Eternelles
TTITLE8=Un Parc, Une Tonnelle
TTITLE9=Aux Mortes Saisons
TTITLE10=Aux Funestes Douleurs
TTITLE11=Automne et Long Silence
TTITLE12=Aux Glycies Defuntes
TTITLE13=Aux Aurores
TTITLE14=Anton's Death
EXTD=YEAR: 1998
EXTT0=
EXTT1=
EXTT2=
EXTT3=
EXTT4=
EXTT5=
EXTT6=
EXTT7=
EXTT8=
EXTT9=
EXTT10=
EXTT11=
EXTT12=
EXTT13=
EXTT14=
PLAYORDER=
